# xmcd CD database file
#
# Track frame offsets:
#	150
#	6073
#	25798
#	43461
#	55954
#	75426
#	90107
#	108152
#	122597
#	129927
#	146311
#
# Disc length: 2151 seconds
#
# Revision: 0
# Processed by: cddbd v1.5.2PL0 Copyright (c) Steve Scherf et al.
# Submitted via: CDex 1.94
#
DISCID=7908650b
DTITLE=Spencer Burton - Songs Of
DYEAR=2017
DGENRE=Country
TTITLE0=Old Grey Stone
TTITLE1=End Of The Summer
TTITLE2=Unmistakable Love
TTITLE3=Broken Hearts And Broken Chains
TTITLE4=Cry Little Darling
TTITLE5=Small Towns
TTITLE6=Wild Truth
TTITLE7=Love At First Sight
TTITLE8=Field Song
TTITLE9=Dear Danny
TTITLE10=Songs Of Hurtin'
EXTD=YEAR: 2017
EXTT0=
EXTT1=
EXTT2=
EXTT3=
EXTT4=
EXTT5=
EXTT6=
EXTT7=
EXTT8=
EXTT9=
EXTT10=
PLAYORDER=
